<svg width="79" height="29" viewBox="0 0 79 29" fill="none" xmlns="http://www.w3.org/2000/svg">
<rect width="79" height="29" rx="2" fill="#E90044"/>
<path d="M9.14258 21V8.20312H13.0801C14.2051 8.20312 15.21 8.45801 16.0947 8.96777C16.9854 9.47168 17.6797 10.1924 18.1777 11.1299C18.6758 12.0615 18.9248 13.1221 18.9248 14.3115V14.9004C18.9248 16.0898 18.6787 17.1475 18.1865 18.0732C17.7002 18.999 17.0117 19.7168 16.1211 20.2266C15.2305 20.7363 14.2256 20.9941 13.1064 21H9.14258ZM11.7793 10.3389V18.8818H13.0537C14.085 18.8818 14.873 18.5449 15.418 17.8711C15.9629 17.1973 16.2412 16.2334 16.2529 14.9795V14.3027C16.2529 13.002 15.9834 12.0176 15.4443 11.3496C14.9053 10.6758 14.1172 10.3389 13.0801 10.3389H11.7793ZM28.5488 15.4541H23.4863V18.8818H29.4277V21H20.8496V8.20312H29.4102V10.3389H23.4863V13.3887H28.5488V15.4541ZM33.6113 18.8818H39.21V21H30.9746V8.20312H33.6113V18.8818ZM48.4297 15.4541H43.3672V18.8818H49.3086V21H40.7305V8.20312H49.291V10.3389H43.3672V13.3887H48.4297V15.4541ZM60.6641 10.3389H56.7441V21H54.1074V10.3389H50.2402V8.20312H60.6641V10.3389ZM69.875 15.4541H64.8125V18.8818H70.7539V21H62.1758V8.20312H70.7363V10.3389H64.8125V13.3887H69.875V15.4541Z" fill="#FDFDFF"/>
</svg>
