<svg width="49" height="29" viewBox="0 0 49 29" fill="none" xmlns="http://www.w3.org/2000/svg">
<rect width="49" height="29" rx="2" fill="#8F48CC"/>
<path d="M19.2676 19.3828C18.793 19.9512 18.1221 20.3936 17.2549 20.71C16.3877 21.0205 15.4268 21.1758 14.3721 21.1758C13.2646 21.1758 12.292 20.9355 11.4541 20.4551C10.6221 19.9688 9.97754 19.2656 9.52051 18.3457C9.06934 17.4258 8.83789 16.3447 8.82617 15.1025V14.2324C8.82617 12.9551 9.04004 11.8506 9.46777 10.9189C9.90137 9.98145 10.5225 9.2666 11.3311 8.77441C12.1455 8.27637 13.0977 8.02734 14.1875 8.02734C15.7051 8.02734 16.8916 8.39062 17.7471 9.11719C18.6025 9.83789 19.1094 10.8896 19.2676 12.2725H16.7012C16.584 11.54 16.3232 11.0039 15.9189 10.6641C15.5205 10.3242 14.9697 10.1543 14.2666 10.1543C13.3701 10.1543 12.6875 10.4912 12.2188 11.165C11.75 11.8389 11.5127 12.8408 11.5068 14.1709V14.9883C11.5068 16.3301 11.7617 17.3438 12.2715 18.0293C12.7812 18.7148 13.5283 19.0576 14.5127 19.0576C15.5029 19.0576 16.209 18.8467 16.6309 18.4248V16.2188H14.2314V14.2764H19.2676V19.3828ZM29.1113 15.4541H24.0488V18.8818H29.9902V21H21.4121V8.20312H29.9727V10.3389H24.0488V13.3887H29.1113V15.4541ZM41.3457 10.3389H37.4258V21H34.7891V10.3389H30.9219V8.20312H41.3457V10.3389Z" fill="#FDFDFF"/>
</svg>
