<svg width="70" height="29" viewBox="0 0 70 29" fill="none" xmlns="http://www.w3.org/2000/svg">
<rect width="70" height="29" rx="2" fill="#E26C00"/>
<path d="M9.7793 16.4912V21H7.14258V8.20312H12.1348C13.0957 8.20312 13.9395 8.37891 14.666 8.73047C15.3984 9.08203 15.9609 9.58301 16.3535 10.2334C16.7461 10.8779 16.9424 11.6133 16.9424 12.4395C16.9424 13.6934 16.5117 14.6836 15.6504 15.4102C14.7949 16.1309 13.6084 16.4912 12.0908 16.4912H9.7793ZM9.7793 14.3555H12.1348C12.832 14.3555 13.3623 14.1914 13.7256 13.8633C14.0947 13.5352 14.2793 13.0664 14.2793 12.457C14.2793 11.8301 14.0947 11.3232 13.7256 10.9365C13.3564 10.5498 12.8467 10.3506 12.1963 10.3389H9.7793V14.3555ZM24.4219 18.3633H19.7988L18.9199 21H16.1162L20.8799 8.20312H23.3232L28.1133 21H25.3096L24.4219 18.3633ZM20.5107 16.2275H23.71L22.1016 11.4375L20.5107 16.2275ZM37.8867 10.3389H33.9668V21H31.3301V10.3389H27.4629V8.20312H37.8867V10.3389ZM49.1982 16.7373C49.0986 18.1143 48.5889 19.1982 47.6689 19.9893C46.7549 20.7803 45.5479 21.1758 44.0479 21.1758C42.4072 21.1758 41.1152 20.625 40.1719 19.5234C39.2344 18.416 38.7656 16.8984 38.7656 14.9707V14.1885C38.7656 12.958 38.9824 11.874 39.416 10.9365C39.8496 9.99902 40.4678 9.28125 41.2705 8.7832C42.0791 8.2793 43.0166 8.02734 44.083 8.02734C45.5596 8.02734 46.749 8.42285 47.6514 9.21387C48.5537 10.0049 49.0752 11.1152 49.2158 12.5449H46.5791C46.5146 11.7188 46.2832 11.1211 45.8848 10.752C45.4922 10.377 44.8916 10.1895 44.083 10.1895C43.2041 10.1895 42.5449 10.5059 42.1055 11.1387C41.6719 11.7656 41.4492 12.7412 41.4375 14.0654V15.0322C41.4375 16.415 41.6455 17.4258 42.0615 18.0645C42.4834 18.7031 43.1455 19.0225 44.0479 19.0225C44.8623 19.0225 45.4688 18.8379 45.8672 18.4688C46.2715 18.0938 46.5029 17.5166 46.5615 16.7373H49.1982ZM61.3447 21H58.708V15.5156H53.5664V21H50.9297V8.20312H53.5664V13.3887H58.708V8.20312H61.3447V21Z" fill="#FDFDFF"/>
</svg>
