<svg width="60" height="29" viewBox="0 0 60 29" fill="none" xmlns="http://www.w3.org/2000/svg">
<rect width="60" height="29" rx="2" fill="#00B204"/>
<path d="M9.7793 16.4912V21H7.14258V8.20312H12.1348C13.0957 8.20312 13.9395 8.37891 14.666 8.73047C15.3984 9.08203 15.9609 9.58301 16.3535 10.2334C16.7461 10.8779 16.9424 11.6133 16.9424 12.4395C16.9424 13.6934 16.5117 14.6836 15.6504 15.4102C14.7949 16.1309 13.6084 16.4912 12.0908 16.4912H9.7793ZM9.7793 14.3555H12.1348C12.832 14.3555 13.3623 14.1914 13.7256 13.8633C14.0947 13.5352 14.2793 13.0664 14.2793 12.457C14.2793 11.8301 14.0947 11.3232 13.7256 10.9365C13.3564 10.5498 12.8467 10.3506 12.1963 10.3389H9.7793V14.3555ZM29.2734 14.8916C29.2734 16.1514 29.0508 17.2559 28.6055 18.2051C28.1602 19.1543 27.5215 19.8867 26.6895 20.4023C25.8633 20.918 24.9141 21.1758 23.8418 21.1758C22.7812 21.1758 21.835 20.9209 21.0029 20.4111C20.1709 19.9014 19.5264 19.1748 19.0693 18.2314C18.6123 17.2822 18.3809 16.1924 18.375 14.9619V14.3291C18.375 13.0693 18.6006 11.9619 19.0518 11.0068C19.5088 10.0459 20.1504 9.31055 20.9766 8.80078C21.8086 8.28516 22.7578 8.02734 23.8242 8.02734C24.8906 8.02734 25.8369 8.28516 26.6631 8.80078C27.4951 9.31055 28.1367 10.0459 28.5879 11.0068C29.0449 11.9619 29.2734 13.0664 29.2734 14.3203V14.8916ZM26.6016 14.3115C26.6016 12.9697 26.3613 11.9502 25.8809 11.2529C25.4004 10.5557 24.7148 10.207 23.8242 10.207C22.9395 10.207 22.2568 10.5527 21.7764 11.2441C21.2959 11.9297 21.0527 12.9375 21.0469 14.2676V14.8916C21.0469 16.1982 21.2871 17.2119 21.7676 17.9326C22.248 18.6533 22.9395 19.0137 23.8418 19.0137C24.7266 19.0137 25.4062 18.668 25.8809 17.9766C26.3555 17.2793 26.5957 16.2656 26.6016 14.9355V14.3115ZM37.8252 17.6426C37.8252 17.1445 37.6494 16.7637 37.2979 16.5C36.9463 16.2305 36.3135 15.9492 35.3994 15.6562C34.4854 15.3574 33.7617 15.0645 33.2285 14.7773C31.7754 13.9922 31.0488 12.9346 31.0488 11.6045C31.0488 10.9131 31.2422 10.2979 31.6289 9.75879C32.0215 9.21387 32.5811 8.78906 33.3076 8.48438C34.04 8.17969 34.8604 8.02734 35.7686 8.02734C36.6826 8.02734 37.4971 8.19434 38.2119 8.52832C38.9268 8.85645 39.4805 9.32227 39.873 9.92578C40.2715 10.5293 40.4707 11.2148 40.4707 11.9824H37.834C37.834 11.3965 37.6494 10.9424 37.2803 10.6201C36.9111 10.292 36.3926 10.1279 35.7246 10.1279C35.0801 10.1279 34.5791 10.2656 34.2217 10.541C33.8643 10.8105 33.6855 11.168 33.6855 11.6133C33.6855 12.0293 33.8936 12.3779 34.3096 12.6592C34.7314 12.9404 35.3496 13.2041 36.1641 13.4502C37.6641 13.9014 38.7568 14.4609 39.4424 15.1289C40.1279 15.7969 40.4707 16.6289 40.4707 17.625C40.4707 18.7324 40.0518 19.6025 39.2139 20.2354C38.376 20.8623 37.248 21.1758 35.8301 21.1758C34.8457 21.1758 33.9492 20.9971 33.1406 20.6396C32.332 20.2764 31.7139 19.7812 31.2861 19.1543C30.8643 18.5273 30.6533 17.8008 30.6533 16.9746H33.2988C33.2988 18.3867 34.1426 19.0928 35.8301 19.0928C36.457 19.0928 36.9463 18.9668 37.2979 18.7148C37.6494 18.457 37.8252 18.0996 37.8252 17.6426ZM51.8965 10.3389H47.9766V21H45.3398V10.3389H41.4727V8.20312H51.8965V10.3389Z" fill="#FDFDFF"/>
</svg>
